<svg xmlns="http://www.w3.org/2000/svg" width="48" height="48" fill="none"><g clip-path="url(#a)"><path fill="#6c47ff" d="M48 24C48 10.745 37.255 0 24 0S0 10.745 0 24s10.745 24 24 24 24-10.745 24-24"/><path fill="#fff" fill-opacity=".4" d="M33.338 10.032c.524.351.57 1.09.123 1.538l-3.837 3.836c-.347.347-.885.402-1.321.178A9.4 9.4 0 0 0 24 14.55 9.45 9.45 0 0 0 14.55 24c0 1.55.373 3.012 1.034 4.303.224.436.169.974-.178 1.32l-3.836 3.838c-.447.446-1.187.401-1.538-.123A16.72 16.72 0 0 1 7.2 24c0-9.278 7.522-16.8 16.8-16.8 3.455 0 6.667 1.043 9.337 2.832"/><path fill="#fff" d="M29.25 24a5.25 5.25 0 1 1-10.5 0 5.25 5.25 0 0 1 10.5 0M33.46 36.43c.447.447.402 1.187-.123 1.538A16.7 16.7 0 0 1 24 40.8a16.7 16.7 0 0 1-9.338-2.832c-.524-.351-.57-1.09-.123-1.538l3.837-3.836c.347-.347.885-.402 1.321-.178A9.4 9.4 0 0 0 24 33.45a9.4 9.4 0 0 0 4.303-1.034c.436-.224.974-.169 1.321.178z"/></g><defs><clipPath id="a"><path fill="#fff" d="M0 0h48v48H0z"/></clipPath></defs></svg>