<svg viewBox="0 0 16 16"><path fill="currentColor" d="M14.82 0H1.18A1.169 1.169 0 0 0 0 1.154v13.694A1.168 1.168 0 0 0 1.18 16h13.64A1.17 1.17 0 0 0 16 14.845V1.15A1.171 1.171 0 0 0 14.82 0ZM4.744 13.64H2.369V5.996h2.375v7.642Zm-1.18-8.684a1.377 1.377 0 1 1 .52-.106 1.377 1.377 0 0 1-.527.103l.006.003Zm10.075 8.683h-2.375V9.921c0-.885-.015-2.025-1.234-2.025-1.218 0-1.425.966-1.425 1.968v3.775H6.233V5.997H8.51v1.05h.032c.317-.601 1.09-1.235 2.246-1.235 2.405-.005 2.851 1.578 2.851 3.63v4.197Z"></path></svg>