<svg xmlns="http://www.w3.org/2000/svg" width="199" height="177" fill="none"><path fill="#c4d836" d="m43.64 59.653 30.438-30.57-2.989 38.992 23.23-14.35 2.47-32.342c.32-3.89-1.96-7.51-5.55-9l-18.19-7.41c-3.46-1.42-7.43-.55-9.95 2.16l-31.93 34.12H14.12v22.06h20.7c3.31 0 6.48-1.32 8.82-3.66"/><path stroke="#c4d836" stroke-linejoin="round" stroke-miterlimit="10" stroke-width="30" d="M12.058 53.45H34.03L69.927 15l15.89 5.887-2.662 48.306"/><path fill="#c4d836" d="m94.32 53.724-23.229 14.35v.018l-52.722 32.71c-2.64 1.65-4.25 4.52-4.25 7.62v19.97c0 2.44.98 4.79 2.75 6.48l36.88 35.42c2.51 2.4 6.17 3.15 9.39 1.93l17.14-6.48c3.26-1.22 5.5-4.25 5.77-7.7l5.23-60.47-22.57 6.09-4.09 46.87-32.83-31.81 37.11-23.31 23.28-14.36 48.51-30.12-38.61 87.79c-1.69 3.86-.47 8.38 2.91 10.85l15.84 11.67c3.46 2.56 8.22 2.28 11.4-.59l48.24-44.12 17.46-.08v-21.98h-20.64c-3.7 0-7.24 1.42-9.95 3.94l-39.94 37.47 37.39-84.85c1.61-3.62.63-7.86-2.36-10.42l-14.58-12.58c-2.99-2.56-7.27-2.91-10.61-.82l-42.93 26.66"/><path stroke="#c4d836" stroke-linejoin="round" stroke-miterlimit="10" stroke-width="30" d="M78.952 96.434v25.699l-3.53 35.114-12.752 4.708-19.225-14.32L15 114.875l126.53-78.688 12.947 12.186-41.195 91.808 12.358 11.77 49.435-46.296 23.737.196"/></svg>