<svg xmlns="http://www.w3.org/2000/svg" width="48" height="48" fill="none"><g clip-path="url(#a)"><g clip-path="url(#b)"><path fill="currentColor" d="M13.392 29.97v-2.11h4.166l1.357-7.816h-4.131v-2.158h4.5l1.104-6.761h2.552l-1.152 6.761h6.472l1.104-6.761h2.55l-1.104 6.761h3.846v2.158h-4.214l-1.357 7.816h4.179v2.11h-4.5l-1.153 6.905H25.11l1.152-6.905h-6.474l-1.152 6.905h-2.5l1.104-6.905zm14.502-9.926h-6.522l-1.266 7.816h6.522z"/><path fill="#455a64" fill-opacity=".01" fill-rule="evenodd" d="M24.017 48A23.97 23.97 0 0 0 44.78 36a24.02 24.02 0 0 0 0-24A23.97 23.97 0 0 0 24.017 0 23.97 23.97 0 0 0 3.253 12a24.02 24.02 0 0 0 0 24 23.97 23.97 0 0 0 20.764 12v-2.303c-7.744 0-14.9-4.135-18.773-10.848a21.71 21.71 0 0 1 0-21.698A21.67 21.67 0 0 1 24.017 2.303c7.744 0 14.9 4.135 18.772 10.848a21.71 21.71 0 0 1 0 21.698 21.67 21.67 0 0 1-18.772 10.848z" clip-rule="evenodd"/><path fill="#ce001b" fill-rule="evenodd" d="M24.017 48a23.97 23.97 0 0 0 18.745-9.036l-1.799-1.435a21.67 21.67 0 0 1-16.946 8.168z" clip-rule="evenodd"/><path fill="#780011" fill-rule="evenodd" d="M42.762 38.964a24.02 24.02 0 0 0 4.63-20.304l-2.243.512a21.72 21.72 0 0 1-4.186 18.357z" clip-rule="evenodd"/><path fill="#6d7096" fill-rule="evenodd" d="M47.392 18.66A24 24 0 0 0 34.419 2.377l-.998 2.074a21.7 21.7 0 0 1 11.728 14.72z" clip-rule="evenodd"/><path fill="#60bbd5" fill-rule="evenodd" d="M34.42 2.377a23.96 23.96 0 0 0-20.806 0l.998 2.074a21.66 21.66 0 0 1 18.81 0z" clip-rule="evenodd"/><path fill="#0f99be" fill-rule="evenodd" d="M13.614 2.377A24 24 0 0 0 .64 18.66l2.243.512a21.7 21.7 0 0 1 11.728-14.72z" clip-rule="evenodd"/><path fill="#8c9d26" fill-rule="evenodd" d="M.641 18.66a24.02 24.02 0 0 0 4.63 20.304L7.07 37.53a21.72 21.72 0 0 1-4.186-18.357z" clip-rule="evenodd"/><path fill="#fcd813" fill-rule="evenodd" d="M5.271 38.964A23.97 23.97 0 0 0 24.017 48v-2.303A21.67 21.67 0 0 1 7.07 37.53z" clip-rule="evenodd"/></g></g><defs><clipPath id="a"><path fill="currentColor" d="M0 0h48v48H0z"/></clipPath><clipPath id="b"><path fill="currentColor" d="M0 0h48v48H0z"/></clipPath></defs></svg>