<svg xmlns="http://www.w3.org/2000/svg" width="48" height="48" fill="none"><path fill="#95bf47" d="M40.052 9.246a.45.45 0 0 0-.425-.386c-.194 0-3.597-.078-3.597-.078s-2.862-2.785-3.133-3.055c-.27-.271-.851-.194-1.044-.116 0 0-.542.154-1.431.425a11.3 11.3 0 0 0-.697-1.702c-1.005-1.933-2.514-2.978-4.293-2.978-.116 0-.232 0-.386.039-.04-.077-.116-.116-.155-.193-.774-.851-1.78-1.238-2.978-1.2-2.32.078-4.641 1.741-6.498 4.72-1.315 2.088-2.32 4.718-2.63 6.767-2.668.813-4.525 1.393-4.564 1.431-1.353.426-1.392.465-1.547 1.741C6.558 15.628 3 42.895 3 42.895L32.549 48l12.802-3.172c-.04-.038-5.26-35.35-5.299-35.582M28.952 6.5c-.696.194-1.47.464-2.282.696 0-1.16-.155-2.823-.696-4.215 1.74.348 2.591 2.32 2.978 3.52m-3.868 1.2c-1.547.463-3.249 1.005-4.95 1.508.464-1.818 1.392-3.636 2.475-4.835.425-.425 1.005-.928 1.663-1.238.696 1.354.85 3.25.812 4.564m-3.133-6.15q.813 0 1.393.348a7.6 7.6 0 0 0-1.818 1.43c-1.47 1.587-2.591 4.062-3.055 6.421-1.393.425-2.785.851-4.062 1.238.813-3.713 3.946-9.321 7.542-9.437"/><path fill="#5e8e3e" d="M39.627 8.86c-.194 0-3.597-.078-3.597-.078s-2.862-2.785-3.133-3.055c-.116-.116-.232-.155-.387-.194v42.428l12.802-3.171-5.26-35.582a.45.45 0 0 0-.425-.348"/><path fill="#fff" d="m25.394 15.435-1.47 5.569s-1.663-.774-3.636-.619c-2.9.193-2.9 2.011-2.9 2.475.154 2.476 6.69 3.017 7.077 8.857.271 4.603-2.436 7.736-6.343 7.968-4.718.309-7.31-2.476-7.31-2.476l1.006-4.254s2.592 1.972 4.68 1.818c1.354-.078 1.857-1.2 1.818-1.973-.194-3.249-5.53-3.055-5.879-8.393-.27-4.486 2.669-9.05 9.166-9.437 2.514-.193 3.79.464 3.79.464"/></svg>