<svg xmlns="http://www.w3.org/2000/svg" width="18" height="18" fill="none"><path fill="#FF9D00" d="M10.433 1.647c-.577-1.196-2.289-1.196-2.865 0L6.056 4.783a.088.088 0 0 1-.068.048l-3.48.454C1.192 5.457.643 7.079 1.624 8l2.545 2.392c.02.02.028.045.024.069l-.64 3.417c-.247 1.323 1.159 2.302 2.318 1.68L8.955 13.9a.096.096 0 0 1 .09 0l3.085 1.657c1.159.623 2.564-.356 2.317-1.68l-.64-3.416a.076.076 0 0 1 .024-.07l2.546-2.391c.98-.922.431-2.544-.885-2.716l-3.479-.454a.088.088 0 0 1-.069-.048l-1.511-3.136Z"></path></svg>