<svg width="272" height="272" viewBox="0 0 272 272" fill="none" xmlns="http://www.w3.org/2000/svg">
<path d="M148.156 7.21912H125.07V264.217H148.156V7.21912Z" fill="#265CFF"/>
<path fill-rule="evenodd" clip-rule="evenodd" d="M185.991 236.525C204.739 227.187 220.512 212.807 231.537 194.999C242.562 177.192 248.403 156.662 248.403 135.718C248.403 114.774 242.562 94.2442 231.537 76.4365C220.512 58.6288 204.739 44.2484 185.991 34.9113C201.238 59.7736 210.796 95.7244 210.796 135.718C210.796 175.711 201.238 211.749 185.991 236.525ZM85.4446 236.525C66.6967 227.187 50.924 212.807 39.8989 194.999C28.8738 177.192 23.0332 156.662 23.0332 135.718C23.0332 114.774 28.8738 94.2442 39.8989 76.4365C50.924 58.6288 66.6967 44.2484 85.4446 34.9113C70.2268 59.7736 60.6399 95.7244 60.6399 135.718C60.6399 175.711 70.2268 211.749 85.4446 236.525ZM135.718 0C162.56 0 188.8 7.95971 211.119 22.8726C233.437 37.7855 250.833 58.9817 261.105 83.7809C271.377 108.58 274.065 135.869 268.828 162.195C263.591 188.522 250.665 212.705 231.685 231.685C212.704 250.665 188.522 263.591 162.195 268.828C135.869 274.065 108.58 271.377 83.781 261.105C58.9818 250.833 37.7855 233.437 22.8727 211.119C7.9598 188.8 0 162.56 0 135.718C0.0153 99.7333 14.3209 65.2277 39.7713 39.7882C65.2217 14.3486 99.7329 0.057762 135.718 0.057765V0ZM135.718 248.335C144.208 248.335 156.798 241.838 168.608 220.498C179.956 199.967 187.695 170.052 187.695 135.718C187.695 101.384 179.956 71.4685 168.608 50.9375C156.798 29.598 144.208 23.1009 135.718 23.1009C127.228 23.1009 114.667 29.598 102.857 50.9375C91.4799 71.4685 83.7408 101.413 83.7408 135.718C83.7408 170.023 91.4799 199.967 102.857 220.498C114.812 241.896 127.228 248.393 135.718 248.393V248.335Z" fill="#265CFF"/>
<path fill-rule="evenodd" clip-rule="evenodd" d="M46.509 104.912C36.0606 110.805 26.9679 119.229 21.2246 125.244L4.93378 109.691C11.3763 102.943 22.2369 92.7421 35.4453 85.2935C48.5412 77.9083 65.5911 72.3359 83.3213 77.8351L83.3352 77.8394C115.516 87.8663 131.456 112.518 144.683 132.975C144.901 133.312 145.118 133.648 145.334 133.982C159.293 155.56 170.319 171.745 192.11 176.874C208.669 180.734 219.782 179.682 227.193 176.998C234.468 174.363 239.16 169.801 242.351 164.67C245.642 159.378 247.334 153.447 248.163 148.595C248.57 146.214 248.75 144.21 248.827 142.844C248.866 142.164 248.879 141.651 248.883 141.339C248.885 141.183 248.885 141.078 248.884 141.028C248.884 141.011 248.884 141 248.884 140.997V141.012L248.885 141.039C248.885 141.044 248.885 141.05 260.144 140.771C271.402 140.491 271.402 140.497 271.402 140.504V140.518L271.403 140.552L271.405 140.638L271.407 140.878C271.409 141.069 271.408 141.321 271.404 141.63C271.397 142.245 271.373 143.089 271.314 144.123C271.197 146.186 270.936 149.043 270.364 152.39C269.236 158.994 266.812 167.986 261.477 176.565C256.041 185.306 247.594 193.563 234.864 198.175C222.27 202.737 206.514 203.36 186.984 198.806L186.963 198.801C155.661 191.439 140.21 167.541 127.113 147.283C126.882 146.927 126.652 146.571 126.423 146.216C112.573 124.808 100.552 106.798 76.6414 99.3452C67.3745 96.474 57.067 98.9583 46.509 104.912ZM248.884 140.997C248.884 140.996 248.884 140.995 248.884 140.997Z" fill="#265CFF"/>
</svg>
