<svg xmlns="http://www.w3.org/2000/svg" fill="none" viewBox="0 0 150 150"><path fill="#222" d="M0 0h150v150H0z"/><path fill="#455A64" fill-opacity=".01" d="M75.497 124.892a49.505 49.505 0 0 0 42.865-24.723 49.4 49.4 0 0 0 0-49.446A49.505 49.505 0 0 0 75.497 26 49.504 49.504 0 0 0 32.63 50.723a49.401 49.401 0 0 0 0 49.446 49.505 49.505 0 0 0 42.866 24.723v-4.744a44.759 44.759 0 0 1-38.754-22.35 44.658 44.658 0 0 1 0-44.703 44.76 44.76 0 0 1 38.754-22.351c15.987 0 30.759 8.52 38.754 22.35a44.66 44.66 0 0 1 0 44.703 44.76 44.76 0 0 1-38.754 22.351v4.744Z"/><path fill="#CE001B" d="M75.498 124.892a49.518 49.518 0 0 0 38.699-18.616l-3.713-2.958a44.769 44.769 0 0 1-34.986 16.831v4.743Z"/><path fill="#780011" d="M114.201 106.276a49.415 49.415 0 0 0 9.558-41.832l-4.63 1.055a44.669 44.669 0 0 1-8.641 37.819l3.713 2.958Z"/><path fill="#6D7096" d="M123.757 64.444a49.459 49.459 0 0 0-26.781-33.547l-2.06 4.274a44.709 44.709 0 0 1 24.211 30.328l4.63-1.055Z"/><path fill="#60BBD5" d="M96.97 30.897a49.546 49.546 0 0 0-42.95 0l2.06 4.273a44.79 44.79 0 0 1 38.83 0l2.06-4.273Z"/><path fill="#0F99BE" d="M54.026 30.898a49.46 49.46 0 0 0-26.781 33.546l4.63 1.055A44.709 44.709 0 0 1 56.086 35.17l-2.06-4.273Z"/><path fill="#8C9D26" d="M27.241 64.444a49.41 49.41 0 0 0 9.558 41.832l3.713-2.958a44.668 44.668 0 0 1-8.64-37.82l-4.63-1.054Z"/><path fill="#FCD813" d="M36.8 106.276a49.516 49.516 0 0 0 38.698 18.616v-4.743a44.767 44.767 0 0 1-34.986-16.831l-3.713 2.958Z"/><path fill="#fff" d="M53.564 87.746V83.4h8.601l2.801-16.103h-8.528V62.85h9.29l2.28-13.93h5.269l-2.379 13.93h13.36l2.28-13.93h5.265l-2.28 13.93h7.94v4.446h-8.7l-2.8 16.103h8.626v4.347h-9.291l-2.379 14.226h-5.166l2.378-14.226H66.767l-2.378 14.226h-5.162l2.279-14.226h-7.942Zm29.94-20.45H70.038l-2.614 16.103H80.89l2.614-16.103Z"/></svg>