<svg
  width="32"
  height="32"
  fill="none"
  xmlns="http://www.w3.org/2000/svg"
>
  <path
    d="M19 21a5 5 0 1 0 0-10 5 5 0 0 0 0 10Z"
    fill="#fff"
  />
  <path
    d="M28.01 27.838c.424.426.382 1.13-.118 1.465A15.925 15.925 0 0 1 18.999 32c-3.29 0-6.35-.994-8.893-2.697-.5-.335-.542-1.04-.117-1.465l3.654-3.654c.33-.33.842-.382 1.258-.17A8.96 8.96 0 0 0 19 25a8.961 8.961 0 0 0 4.098-.985c.416-.213.928-.161 1.258.17l3.654 3.653Z"
    fill="#fff"
  />
  <path
    d="M27.893 2.697c.5.335.542 1.04.117 1.464l-3.654 3.654c-.33.33-.843.383-1.258.17a9 9 0 0 0-12.113 12.113c.213.416.16.928-.17 1.258L7.161 25.01c-.425.425-1.13.383-1.464-.117A15.926 15.926 0 0 1 3 16C3 7.163 10.163 0 19 0c3.29 0 6.35.994 8.893 2.697Z"
    fill="#fff"
  />
</svg>