<svg
  width="32"
  height="32"
  fill="none"
  xmlns="http://www.w3.org/2000/svg"
>
  <g clip-path="url(#a)" fill="#fff">
    <path d="M17.466.851h-2.721V31.15h2.721V.85Z" />
    <path
      fill-rule="evenodd"
      clip-rule="evenodd"
      d="M21.927 27.884a13.277 13.277 0 0 0 0-23.768c1.797 2.93 2.924 7.17 2.924 11.884 0 4.715-1.127 8.963-2.924 11.884Zm-11.854 0a13.278 13.278 0 0 1 0-23.768C8.28 7.046 7.15 11.286 7.15 16c0 4.715 1.13 8.963 2.924 11.884ZM16 0A16 16 0 1 1 0 16 16 16 0 0 1 16 .007V0Zm0 29.277c1 0 2.485-.766 3.877-3.282 1.338-2.42 2.25-5.947 2.25-9.995 0-4.048-.912-7.574-2.25-9.995C18.485 3.49 17.001 2.723 16 2.723c-1 0-2.482.766-3.874 3.282-1.341 2.42-2.254 5.95-2.254 9.995 0 4.044.913 7.574 2.254 9.995 1.41 2.522 2.873 3.288 3.874 3.288v-.006Z"
    />
    <path
      fill-rule="evenodd"
      clip-rule="evenodd"
      d="M5.483 12.368c-1.232.695-2.304 1.688-2.98 2.397L.581 12.932c.76-.796 2.04-1.998 3.597-2.877 1.544-.87 3.554-1.527 5.644-.879h.002c3.793 1.183 5.673 4.089 7.232 6.5l.077.12c1.645 2.543 2.945 4.451 5.514 5.056 1.952.455 3.262.331 4.136.015a3.412 3.412 0 0 0 1.787-1.454c.388-.624.588-1.323.685-1.895a6.123 6.123 0 0 0 .085-.892v-.004.005s0 .002 1.328-.031l1.327-.032v.133a8.775 8.775 0 0 1-.123 1.268c-.132.779-.418 1.84-1.047 2.85a6.066 6.066 0 0 1-3.137 2.548c-1.485.538-3.343.611-5.645.075l-.003-.001c-3.69-.868-5.511-3.685-7.055-6.074a37.884 37.884 0 0 1-.082-.125c-1.633-2.524-3.05-4.647-5.869-5.526-1.092-.338-2.307-.046-3.552.656Zm23.858 4.254Z"
    />
  </g>
  <defs>
    <clipPath id="a">
      <path fill="#fff" d="M0 0h32v32H0z" />
    </clipPath>
  </defs>
</svg>