<svg width="32" height="32" fill="none" xmlns="http://www.w3.org/2000/svg"><g clip-path="url(#a)"><path d="M15.999 31.965a16.002 16.002 0 0 0 13.855-7.991 15.969 15.969 0 0 0 0-15.983A16.002 16.002 0 0 0 16 0 16.001 16.001 0 0 0 2.143 7.991a15.968 15.968 0 0 0 0 15.983A16.002 16.002 0 0 0 16 31.965v-1.533a14.468 14.468 0 0 1-12.527-7.225 14.435 14.435 0 0 1 0-14.449A14.468 14.468 0 0 1 16 1.533c5.167 0 9.942 2.755 12.527 7.225a14.435 14.435 0 0 1 0 14.45 14.468 14.468 0 0 1-12.527 7.224v1.533Z" fill="#455A64" fill-opacity=".01"/><path d="M16 31.965c4.868 0 9.472-2.214 12.508-6.017l-1.2-.956a14.47 14.47 0 0 1-11.309 5.44v1.533ZM28.51 25.948a15.971 15.971 0 0 0 3.089-13.522l-1.497.341a14.438 14.438 0 0 1-2.793 12.225l1.2.956Z" fill="#fff"/><path d="M31.598 12.426a15.987 15.987 0 0 0-8.656-10.843l-.666 1.381a14.452 14.452 0 0 1 7.826 9.803l1.496-.34ZM22.94 1.583a16.015 16.015 0 0 0-13.883 0l.666 1.381a14.478 14.478 0 0 1 12.551 0l.666-1.381Z" fill="#fff"/><path d="M9.059 1.583A15.987 15.987 0 0 0 .402 12.426l1.497.341a14.451 14.451 0 0 1 7.826-9.803l-.666-1.381ZM.401 12.426a15.971 15.971 0 0 0 3.09 13.522l1.2-.956a14.438 14.438 0 0 1-2.793-12.225L.4 12.427Z" fill="#fff"/><path d="M3.49 25.948A16.006 16.006 0 0 0 16 31.965v-1.533a14.47 14.47 0 0 1-11.31-5.44l-1.2.956ZM8.91 19.958v-1.405h2.78l.905-5.205H9.84v-1.437h3.002l.737-4.502h1.703l-.768 4.502h4.318l.737-4.502h1.702l-.737 4.502h2.566v1.437h-2.812l-.905 5.205h2.788v1.405h-3.003l-.769 4.599h-1.67l.769-4.599h-4.32l-.768 4.599h-1.67l.738-4.599H8.91Zm9.677-6.61h-4.352l-.845 5.205h4.352l.845-5.205Z" fill="#fff"/></g><defs><clipPath id="a"><path fill="#fff" d="M0 0h32v32H0z"/></clipPath></defs></svg>