<svg width="800" height="300" fill="none" xmlns="http://www.w3.org/2000/svg">
  <path d="M0-80h800v500H0V-80Z" fill="#000"/>
  <path d="m576.848 40.743 246.736 142.453-518.718 299.482L58.129 340.225 576.848 40.743Z" fill="url(#a)" opacity=".8"/>
  <g filter="url(#b)">
    <path d="M634.523-38.794 285.945 162.44l123.857 71.502L758.38 32.708 634.523-38.794Z" fill="url(#c)"/>
  </g>
  <path d="m755.612 32.708-345.81 199.636-121.089-69.904 345.81-199.636 121.089 69.904Z" stroke="url(#d)" stroke-opacity=".8" stroke-width="2.768"/>
  <g filter="url(#e)">
    <path d="m405.402 158.224 61.079-43.153-29.841 2.795c-15.717 6.682-57.337 25.31-57.337 25.31l26.099 15.048Z" fill="url(#f)"/>
  </g>
  <g opacity=".9">
    <path d="M373.943 166.646c-11.238-6.488-11.221-17.017.037-23.517 11.258-6.5 29.495-6.509 40.733-.021 11.238 6.488 11.221 17.017-.037 23.517-11.258 6.5-29.495 6.509-40.733.021Z" fill="url(#g)"/>
    <path d="M322.62 113.476c-39.673 22.905-39.73 60.01-.127 82.874 39.603 22.865 103.869 22.832 143.543-.073 39.673-22.905 39.73-60.01.127-82.874-39.603-22.865-103.869-22.832-143.543.073Z" fill="url(#h)" fill-opacity=".6"/>
    <path opacity=".2" fill-rule="evenodd" clip-rule="evenodd" d="M436.106 132.574c-10.71-6.183-24.732-9.267-38.737-9.267-14.005 0-28.025 3.084-38.738 9.267-10.71 6.184-16.129 14.326-16.129 22.528 0 5.989 2.889 11.947 8.617 17.132.056.051.13.077.206.074a.288.288 0 0 0 .272-.3.288.288 0 0 0-.094-.198c-5.637-5.102-8.431-10.922-8.431-16.708 0-7.924 5.239-15.909 15.843-22.032 10.604-6.121 24.52-9.19 38.451-9.19 13.931 0 27.847 3.069 38.451 9.19 10.604 6.123 15.843 14.108 15.843 22.032 0 7.925-5.236 15.909-15.843 22.033-10.604 6.121-24.52 9.19-38.451 9.19-9.15 0-18.291-1.323-26.493-3.965l-.67.383c8.394 2.772 17.781 4.154 27.163 4.154 14.005 0 28.025-3.083 38.738-9.267 10.71-6.184 16.129-14.326 16.129-22.528 0-8.202-5.419-16.347-16.129-22.528h.002Z" fill="url(#i)"/>
    <path opacity=".35" fill-rule="evenodd" clip-rule="evenodd" d="M356.086 170.153a.287.287 0 0 1-.317-.052c-4.896-4.558-7.367-9.762-7.367-14.999 0-7.329 4.844-14.6 14.401-20.117 9.559-5.52 22.067-8.268 34.56-8.268 12.494 0 25.004 2.751 34.564 8.268 9.556 5.517 14.4 12.788 14.4 20.117 0 7.329-4.844 14.601-14.4 20.118-9.56 5.517-22.067 8.268-34.564 8.268-7.833 0-15.674-1.082-22.788-3.25l.684-.392c6.914 2.044 14.506 3.069 22.104 3.069 12.419 0 24.824-2.737 34.277-8.193 9.454-5.457 14.114-12.568 14.114-19.622 0-7.055-4.66-14.166-14.114-19.623-9.45-5.456-21.855-8.193-34.277-8.193s-24.824 2.737-34.274 8.193c-9.453 5.457-14.114 12.568-14.114 19.623 0 5.038 2.379 10.108 7.183 14.58a.28.28 0 0 1 .088.255.281.281 0 0 1-.163.215l.003.003Z" fill="url(#j)"/>
    <path opacity=".5" fill-rule="evenodd" clip-rule="evenodd" d="M361.044 167.885a.293.293 0 0 1-.321-.054c-4.014-3.888-6.043-8.294-6.043-12.729 0-6.401 4.231-12.745 12.562-17.555 8.334-4.809 19.236-7.208 30.126-7.208s21.792 2.396 30.123 7.208c8.331 4.81 12.562 11.154 12.562 17.555 0 6.402-4.231 12.746-12.562 17.555-8.334 4.81-19.236 7.209-30.123 7.209-6.181 0-12.365-.773-18.082-2.319l.707-.403c5.505 1.434 11.437 2.15 17.375 2.15 10.813 0 21.612-2.382 29.837-7.132 8.228-4.749 12.276-10.933 12.276-17.06 0-6.126-4.048-12.31-12.276-17.06-8.225-4.749-19.024-7.131-29.837-7.131-10.813 0-21.612 2.382-29.84 7.131-8.228 4.75-12.276 10.934-12.276 17.06 0 4.243 1.941 8.515 5.869 12.316a.285.285 0 0 1 .031.379.288.288 0 0 1-.108.085v.003Z" fill="url(#k)"/>
    <path opacity=".6" fill-rule="evenodd" clip-rule="evenodd" d="M365.857 165.681a.293.293 0 0 1-.173.021.294.294 0 0 1-.153-.082c-3.169-3.235-4.775-6.862-4.775-10.518 0-5.505 3.636-10.95 10.781-15.076 7.146-4.125 16.493-6.181 25.826-6.181 9.333 0 18.681 2.056 25.826 6.181 7.143 4.126 10.782 9.571 10.782 15.076 0 5.506-3.636 10.951-10.782 15.073-7.145 4.126-16.493 6.181-25.826 6.181-4.557 0-9.121-.489-13.426-1.471l.738-.424c4.08.882 8.383 1.323 12.688 1.323 9.259 0 18.5-2.039 25.54-6.104 7.04-4.065 10.495-9.35 10.495-14.578 0-5.227-3.455-10.515-10.495-14.577-7.04-4.063-16.281-6.104-25.54-6.104-9.258 0-18.499 2.038-25.539 6.104-7.04 4.065-10.496 9.35-10.496 14.577 0 3.473 1.523 6.971 4.61 10.118a.301.301 0 0 1 .07.116.284.284 0 0 1-.153.345h.002Z" fill="url(#l)"/>
    <path opacity=".7" fill-rule="evenodd" clip-rule="evenodd" d="M370.881 163.385a.296.296 0 0 1-.335-.069c-2.305-2.548-3.476-5.371-3.476-8.214 0-4.574 3.023-9.089 8.938-12.505 5.915-3.415 13.653-5.116 21.374-5.116 7.722 0 15.457 1.701 21.375 5.116 5.914 3.416 8.937 7.931 8.937 12.505 0 4.575-3.023 9.09-8.937 12.505-5.918 3.416-13.653 5.116-21.375 5.116-2.845 0-5.694-.232-8.451-.692l.793-.453c2.535.383 5.095.574 7.658.573 7.647 0 15.28-1.686 21.088-5.039 5.812-3.355 8.652-7.71 8.652-12.01s-2.84-8.654-8.652-12.009c-5.808-3.353-13.441-5.039-21.088-5.039-7.646 0-15.279 1.686-21.088 5.039-5.811 3.355-8.651 7.709-8.651 12.009 0 2.671 1.099 5.368 3.327 7.83a.288.288 0 0 1-.089.453Z" fill="url(#m)"/>
    <path d="M378.255 143.658c0 9.662 7.832 17.494 17.493 17.494 9.662 0 17.494-7.832 17.494-17.494 0-9.661-7.832-17.493-17.494-17.493-9.661 0-17.493 7.832-17.493 17.493Z" fill="url(#n)"/>
    <path d="M378.255 143.658c0 9.662 7.832 17.494 17.493 17.494 9.662 0 17.494-7.832 17.494-17.494 0-9.661-7.832-17.493-17.494-17.493-9.661 0-17.493 7.832-17.493 17.493Z" fill="url(#o)" fill-opacity=".5"/>
    <path d="M378.255 143.658c0 9.662 7.832 17.494 17.493 17.494 9.662 0 17.494-7.832 17.494-17.494 0-9.661-7.832-17.493-17.494-17.493-9.661 0-17.493 7.832-17.493 17.493Z" fill="url(#p)"/>
    <path d="M378.255 143.658c0 9.662 7.832 17.494 17.493 17.494 9.662 0 17.494-7.832 17.494-17.494 0-9.661-7.832-17.493-17.494-17.493-9.661 0-17.493 7.832-17.493 17.493Z" fill="url(#q)" fill-opacity=".5"/>
    <path d="M378.254 143.658c0 9.662 7.832 17.494 17.493 17.494 9.662 0 17.494-7.832 17.494-17.494 0-9.661-7.832-17.493-17.494-17.493-9.661 0-17.493 7.832-17.493 17.493Z" fill="url(#r)" fill-opacity=".8"/>
    <path d="M378.254 143.658c0 9.662 7.832 17.494 17.493 17.494 9.662 0 17.494-7.832 17.494-17.494 0-9.661-7.832-17.493-17.494-17.493-9.661 0-17.493 7.832-17.493 17.493Z" fill="url(#s)" fill-opacity=".5"/>
    <path d="M378.254 143.658c0 9.662 7.832 17.494 17.493 17.494 9.662 0 17.494-7.832 17.494-17.494 0-9.661-7.832-17.493-17.494-17.493-9.661 0-17.493 7.832-17.493 17.493Z" fill="url(#t)" fill-opacity=".8"/>
    <path d="M378.254 143.658c0 9.662 7.832 17.494 17.493 17.494 9.662 0 17.494-7.832 17.494-17.494 0-9.661-7.832-17.493-17.494-17.493-9.661 0-17.493 7.832-17.493 17.493Z" fill="url(#u)" fill-opacity=".5"/>
  </g>
  <g filter="url(#v)">
    <path d="m787.609-187.678-358.81 207.14 123.857 71.503 358.809-207.14-123.856-71.503Z" fill="url(#w)"/>
  </g>
  <path d="m788.301-188.877-.692-.399-.692.399-358.81 207.141-2.076 1.199 2.076 1.198 123.857 71.503.692.399.691-.399 358.81-207.141 2.076-1.199-2.076-1.198-123.856-71.503Z" stroke="url(#x)" stroke-opacity=".6" stroke-width="2.768"/>
  <path opacity=".2" d="m454.203 19.433 24.612-14.209 24.612 14.209-24.612 14.208-24.612-14.208Z" fill="url(#y)"/>
  <path opacity=".3" d="m492.122 40.745 23.613-13.632 23.614 13.632-23.614 13.633-23.613-13.633ZM525.478 61.11l23.614-13.632 23.613 13.632-23.613 13.632-23.614-13.632ZM492.122-1.88l23.613-13.632L539.349-1.88l-23.614 13.632L492.122-1.88Z" stroke="#D3FDEB" stroke-width="1.153"/>
  <path d="M503.352 19.896 478.85 34.043v-49.06l24.502-14.146v49.06-.001Z" fill="url(#z)" fill-opacity=".65"/>
  <path d="m454.348 19.896 24.502 14.147v-67.642l-24.502-14.146v67.641Z" fill="url(#A)" fill-opacity=".65"/>
  <path d="M182.713-299.812-54-163.158 282.141 30.896l236.713-136.654-336.141-194.054Z" fill="url(#B)" opacity=".8"/>
  <path d="m478.971-27.232 19.027-10.986V79.447l-19.027 10.986V-27.232Z" fill="url(#C)" fill-opacity=".7"/>
  <path d="m478.971-27.232-19.028-10.986V78.797l19.028 10.986V-27.232Z" fill="url(#D)" fill-opacity=".65"/>
  <g opacity=".7">
    <path d="m412.934-2.256 7.886-4.553v48.768l-7.886 4.553V-2.256Z" fill="url(#E)" fill-opacity=".7"/>
    <path d="m412.934-2.256-7.887-4.553V41.69l7.887 4.553V-2.256Z" fill="url(#F)" fill-opacity=".65"/>
  </g>
  <g filter="url(#G)">
    <path d="m698.583 91.828 203.426 115.677L435.402 476.9 231.977 361.223 698.583 91.828Z" fill="url(#H)"/>
  </g>
  <path d="m699.267 90.625-.69-.392-.686.396-466.606 269.396-2.092 1.207 2.1 1.194 203.425 115.677.69.392.686-.396L902.7 208.704l2.092-1.208-2.099-1.194L699.267 90.625Z" stroke="url(#I)" stroke-opacity=".8" stroke-width="2.768"/>
  <path d="m358.199 298.9 9.534-5.504v58.954l-9.534 5.504V298.9Z" fill="url(#J)" fill-opacity=".7"/>
  <path d="m358.199 298.9-9.533-5.504v58.628l9.533 5.504V298.9Z" fill="url(#K)" fill-opacity=".65"/>
  <path d="m348.637 282.344 9.56-5.519v11.039l-9.56 5.519v-11.039Z" fill="#5A00CC" fill-opacity=".38"/>
  <path d="m367.758 282.344-9.56-5.519v11.039l9.56 5.519v-11.039Z" fill="#56009A" fill-opacity=".38"/>
  <path d="m358.168 287.88-9.56-5.519 9.56-5.52 9.56 5.52-9.56 5.519Z" fill="url(#L)"/>
  <path d="m358.168 298.889-9.56-5.519 9.56-5.52 9.56 5.52-9.56 5.519Z" fill="url(#M)" fill-opacity=".9"/>
  <path d="m358.201 287.865-9.56-5.52v11.039l9.56 5.52v-11.039Z" fill="url(#N)" fill-opacity=".9"/>
  <path d="m358.199 287.862 9.56-5.519v11.039l-9.56 5.519v-11.039Z" fill="url(#O)" fill-opacity=".9"/>
  <g filter="url(#P)">
    <path d="m725.421 13.78 306.749 177.1-296.369 171.109-306.748-177.101L725.421 13.78Z" fill="url(#Q)"/>
  </g>
  <path d="m726.113 12.581-.692-.4-.692.4L428.361 183.69l-2.076 1.198 2.076 1.198 306.748 177.102.692.399.692-.399L1032.86 192.08l2.08-1.199-2.08-1.198L726.113 12.581Z" stroke="url(#R)" stroke-opacity=".8" stroke-width="2.768"/>
  <g filter="url(#S)">
    <path d="m624.982 138.971-44.441 47.864-27.352-15.77-28.433 15.77 28.018-16.01.415.24 52.267-28.99 19.526-3.104Z" fill="url(#T)"/>
  </g>
  <path d="M487.798 149.384c-35.886 20.719-35.938 54.281-.115 74.963 35.823 20.683 93.955 20.653 129.841-.066 35.887-20.719 35.938-54.281.115-74.964-35.823-20.682-93.954-20.652-129.841.067Z" fill="url(#U)" fill-opacity=".5"/>
  <path opacity=".4" d="m552.473 202.753-27.438-15.842 27.438-15.841 27.438 15.841-27.438 15.842Z" fill="url(#V)"/>
  <g opacity=".9" fill-rule="evenodd" clip-rule="evenodd">
    <path d="m525.035 186.962 27.424-28.648v44.452l-27.424-15.804Z" fill="url(#W)"/>
    <path d="m525.035 186.962 27.424-28.648v44.452l-27.424-15.804Z" fill="url(#X)" fill-opacity=".1"/>
  </g>
  <g opacity=".9" fill-rule="evenodd" clip-rule="evenodd">
    <path d="m579.887 186.962-27.424-28.648v44.452l27.424-15.804Z" fill="url(#Y)"/>
    <path d="m579.887 186.962-27.424-28.648v44.452l27.424-15.804Z" fill="url(#Z)" fill-opacity=".1"/>
  </g>
  <path opacity=".6" fill-rule="evenodd" clip-rule="evenodd" d="m415.66 314.675-64.161-37.632-.556.946 63.617 37.313-20.496 11.684.543.953 79.606-45.379-.544-.954-34.135 19.459-37.579-22.152-.557.945 37.037 21.834-22.775 12.983Zm97.116 28.463-20.886 11.64 35.957 22.978-.616.91-36.431-23.281-21.319 11.881 17.434 11.142-.615.91-17.565-11.225.447-.66-28.417 15.837-.534-.959 141.5-78.859.534.959-68.377 38.107 60.273 35.331-.554.947-60.831-35.658Z" fill="url(#aa)"/>
  <g opacity=".5" stroke-width="1.153">
    <path d="m660.271 92.982 105.19-60.731" stroke="url(#ab)"/>
    <path d="M659.777 94.98c.921-.532.921-1.394 0-1.925-.921-.532-2.414-.532-3.334 0-.921.531-.921 1.393 0 1.924.92.532 2.413.532 3.334 0Z" stroke="#fff"/>
  </g>
  <g opacity=".5" stroke-width="1.153">
    <path d="m657.949 222.945 105.19 60.731" stroke="url(#ac)"/>
    <path d="M657.544 223.072c.921-.532.921-1.394 0-1.925-.92-.532-2.413-.532-3.333 0-.921.531-.921 1.393 0 1.925.92.531 2.413.531 3.333 0Z" stroke="#fff"/>
  </g>
  <g opacity=".6" stroke-width="1.153">
    <path d="m764.627 199.537-109.012-63.796-28.718 17.526" stroke="url(#ad)"/>
    <path d="M627.018 155.201c.921-.532.921-1.393 0-1.925-.92-.531-2.413-.531-3.334 0-.921.532-.921 1.393 0 1.925s2.414.532 3.334 0Z" stroke="#fff"/>
  </g>
  <path d="m446.514 290.875 22.307-12.879v25.758l-22.307 12.879v-25.758Z" fill="#5A00CC" fill-opacity=".38"/>
  <path d="m491.129 290.875-22.307-12.879v25.758l22.307 12.879v-25.758Z" fill="#56009A" fill-opacity=".38"/>
  <path d="m468.752 303.789-22.307-12.879 22.307-12.879 22.307 12.879-22.307 12.879Z" fill="url(#ae)"/>
  <path d="m468.83 303.754-22.307-12.879v25.758l22.307 12.879v-25.758Z" fill="url(#af)" fill-opacity=".9"/>
  <path d="m468.82 303.748 22.307-12.879v25.758l-22.307 12.879v-25.758Z" fill="url(#ag)" fill-opacity=".9"/>
  <path d="M134.963 99 95 122.08v55.408l14.997 8.711v-55.498l24.966-14.369V99Z" fill="#fff"/>
  <path d="M150.948 99v44.183h-15.985v-16.524l-14.998 8.711v56.487l14.998 8.711v-44.004h15.985v16.344l15.087-8.621v-56.576L150.948 99Z" fill="#fff"/>
  <path d="M150.948 200.568 191 177.488V122.08l-15.087-8.622v55.409l-24.965 14.369v17.332Z" fill="#fff"/>
  <defs>
    <linearGradient id="c" x1="556.616" y1="8.85" x2="266.493" y2="179.227" gradientUnits="userSpaceOnUse">
      <stop stop-color="#313131" stop-opacity="0"/>
      <stop offset=".432" stop-color="#1C1C1C" stop-opacity=".76"/>
      <stop offset="1" stop-color="#1F1F1F" stop-opacity=".86"/>
    </linearGradient>
    <linearGradient id="d" x1="493.097" y1="63.035" x2="367.286" y2="205.915" gradientUnits="userSpaceOnUse">
      <stop stop-color="#F4538E" stop-opacity="0"/>
      <stop offset=".255" stop-color="#F4538E" stop-opacity=".42"/>
      <stop offset=".684" stop-color="#FB78A7" stop-opacity=".805"/>
      <stop offset="1" stop-color="#FF7485"/>
    </linearGradient>
    <linearGradient id="f" x1="400.34" y1="139.955" x2="433.456" y2="107.047" gradientUnits="userSpaceOnUse">
      <stop/>
      <stop offset=".349" stop-opacity=".37"/>
      <stop offset=".542" stop-opacity=".23"/>
      <stop offset=".766" stop-opacity=".12"/>
      <stop offset="1" stop-opacity="0"/>
    </linearGradient>
    <linearGradient id="i" x1="378.414" y1="137.796" x2="398.122" y2="155.789" gradientUnits="userSpaceOnUse">
      <stop stop-color="#fff" stop-opacity=".4"/>
      <stop offset="1" stop-color="#DC477D" stop-opacity=".26"/>
    </linearGradient>
    <linearGradient id="j" x1="380.449" y1="139.657" x2="398.039" y2="155.715" gradientUnits="userSpaceOnUse">
      <stop stop-color="#fff" stop-opacity=".4"/>
      <stop offset="1" stop-color="#DC477D" stop-opacity=".26"/>
    </linearGradient>
    <linearGradient id="k" x1="382.621" y1="141.63" x2="397.958" y2="155.632" gradientUnits="userSpaceOnUse">
      <stop stop-color="#fff" stop-opacity=".4"/>
      <stop offset="1" stop-color="#DC477D" stop-opacity=".26"/>
    </linearGradient>
    <linearGradient id="l" x1="384.724" y1="143.536" x2="397.879" y2="155.549" gradientUnits="userSpaceOnUse">
      <stop stop-color="#fff" stop-opacity=".4"/>
      <stop offset="1" stop-color="#DC477D" stop-opacity=".26"/>
    </linearGradient>
    <linearGradient id="m" x1="386.93" y1="145.503" x2="397.826" y2="155.452" gradientUnits="userSpaceOnUse">
      <stop stop-color="#fff" stop-opacity=".4"/>
      <stop offset="1" stop-color="#DC477D" stop-opacity=".26"/>
    </linearGradient>
    <linearGradient id="w" x1="476.533" y1="55.301" x2="772.991" y2="-138.488" gradientUnits="userSpaceOnUse">
      <stop stop-color="#292929"/>
      <stop offset=".418" stop-color="#262626" stop-opacity=".88"/>
      <stop offset="1" stop-color="#1F1F1F" stop-opacity="0"/>
    </linearGradient>
    <linearGradient id="x" x1="713.412" y1="-92.327" x2="407.215" y2="31.659" gradientUnits="userSpaceOnUse">
      <stop stop-color="#147DC2" stop-opacity="0"/>
      <stop offset=".505" stop-color="#14B3C2" stop-opacity=".7"/>
      <stop offset="1" stop-color="#01CE9D"/>
    </linearGradient>
    <linearGradient id="y" x1="466.505" y1="26.539" x2="478.811" y2="5.221" gradientUnits="userSpaceOnUse">
      <stop stop-color="#BBFBFF" stop-opacity=".62"/>
      <stop offset="1" stop-color="#B8FFE1" stop-opacity=".02"/>
    </linearGradient>
    <linearGradient id="z" x1="487.202" y1="43.731" x2="500.887" y2="6.823" gradientUnits="userSpaceOnUse">
      <stop stop-color="#56C0A7"/>
      <stop offset="1" stop-color="#008196" stop-opacity="0"/>
    </linearGradient>
    <linearGradient id="A" x1="467.709" y1="41.777" x2="467.328" y2="-2.201" gradientUnits="userSpaceOnUse">
      <stop stop-color="#9EFED5"/>
      <stop offset="1" stop-color="#008196" stop-opacity="0"/>
    </linearGradient>
    <linearGradient id="C" x1="486.837" y1="-69.887" x2="440.325" y2="16.083" gradientUnits="userSpaceOnUse">
      <stop stop-color="#2A7D4C"/>
      <stop offset="1" stop-color="#04183E" stop-opacity="0"/>
    </linearGradient>
    <linearGradient id="D" x1="476.815" y1="-60.601" x2="470.109" y2="31.518" gradientUnits="userSpaceOnUse">
      <stop stop-color="#65D592"/>
      <stop offset="1" stop-color="#31526A" stop-opacity="0"/>
    </linearGradient>
    <linearGradient id="E" x1="416.194" y1="-19.934" x2="396.916" y2="15.697" gradientUnits="userSpaceOnUse">
      <stop stop-color="#2A7D4C"/>
      <stop offset="1" stop-color="#04183E" stop-opacity="0"/>
    </linearGradient>
    <linearGradient id="F" x1="412.04" y1="-16.086" x2="409.261" y2="22.094" gradientUnits="userSpaceOnUse">
      <stop stop-color="#65D592"/>
      <stop offset="1" stop-color="#31526A" stop-opacity="0"/>
    </linearGradient>
    <linearGradient id="H" x1="193.086" y1="369.151" x2="943.302" y2="498.559" gradientUnits="userSpaceOnUse">
      <stop stop-color="#2D2D2D"/>
      <stop offset=".418" stop-color="#181818" stop-opacity=".74"/>
      <stop offset="1" stop-color="#1F1F1F" stop-opacity=".13"/>
    </linearGradient>
    <linearGradient id="I" x1="976.693" y1="247.93" x2="226.886" y2="367.437" gradientUnits="userSpaceOnUse">
      <stop stop-color="#171234"/>
      <stop offset=".568" stop-color="#5811B5"/>
      <stop offset="1" stop-color="#4CACDA"/>
    </linearGradient>
    <linearGradient id="J" x1="362.14" y1="277.529" x2="338.836" y2="320.602" gradientUnits="userSpaceOnUse">
      <stop stop-color="#532A7D"/>
      <stop offset="1" stop-color="#33197C" stop-opacity="0"/>
    </linearGradient>
    <linearGradient id="K" x1="357.119" y1="282.181" x2="353.759" y2="328.336" gradientUnits="userSpaceOnUse">
      <stop stop-color="#9C65D5"/>
      <stop offset="1" stop-color="#522AC2" stop-opacity="0"/>
    </linearGradient>
    <linearGradient id="L" x1="350.294" y1="280.925" x2="365.189" y2="287.658" gradientUnits="userSpaceOnUse">
      <stop stop-color="#DAEBFF" stop-opacity=".86"/>
      <stop offset=".5" stop-color="#A35BFF" stop-opacity=".88"/>
      <stop offset=".987" stop-color="#3A07CD" stop-opacity=".8"/>
    </linearGradient>
    <linearGradient id="M" x1="347.194" y1="292.876" x2="368.233" y2="297.004" gradientUnits="userSpaceOnUse">
      <stop stop-color="#D1DBFF"/>
      <stop offset=".479" stop-color="#A975FF" stop-opacity=".45"/>
      <stop offset=".987" stop-color="#552ACE" stop-opacity=".65"/>
    </linearGradient>
    <linearGradient id="N" x1="348.641" y1="281.91" x2="357.712" y2="298.904" gradientUnits="userSpaceOnUse">
      <stop stop-color="#A5B3FF" stop-opacity=".84"/>
      <stop offset=".596" stop-color="#7622CA" stop-opacity=".998"/>
      <stop offset="1" stop-color="#2E2C9F"/>
    </linearGradient>
    <linearGradient id="O" x1="368.086" y1="282.343" x2="358.199" y2="299.236" gradientUnits="userSpaceOnUse">
      <stop stop-color="#863BE7" stop-opacity=".76"/>
      <stop offset="1" stop-color="#0F1B5C" stop-opacity=".81"/>
    </linearGradient>
    <linearGradient id="Q" x1="424.29" y1="209.859" x2="686.27" y2="122.867" gradientUnits="userSpaceOnUse">
      <stop stop-color="#313131"/>
      <stop offset="1" stop-opacity=".74"/>
    </linearGradient>
    <linearGradient id="R" x1="726.645" y1="103.557" x2="415.886" y2="172.402" gradientUnits="userSpaceOnUse">
      <stop stop-color="#EC585D" stop-opacity="0"/>
      <stop offset=".505" stop-color="#EC585D" stop-opacity=".57"/>
      <stop offset="1" stop-color="#FFD976"/>
    </linearGradient>
    <linearGradient id="T" x1="554.775" y1="174.327" x2="610.387" y2="132.388" gradientUnits="userSpaceOnUse">
      <stop/>
      <stop offset=".349" stop-opacity=".37"/>
      <stop offset=".542" stop-opacity=".23"/>
      <stop offset=".766" stop-opacity=".12"/>
      <stop offset="1" stop-opacity="0"/>
    </linearGradient>
    <linearGradient id="V" x1="579.911" y1="186.911" x2="526.625" y2="177.706" gradientUnits="userSpaceOnUse">
      <stop stop-color="#FFF4D4"/>
      <stop offset="1" stop-color="#EC585D"/>
    </linearGradient>
    <linearGradient id="W" x1="525.035" y1="202.766" x2="564.146" y2="182.251" gradientUnits="userSpaceOnUse">
      <stop stop-color="#FFF6B7"/>
      <stop offset="1" stop-color="#EC585D"/>
    </linearGradient>
    <linearGradient id="X" x1="550.949" y1="154.098" x2="538.712" y2="198.573" gradientUnits="userSpaceOnUse">
      <stop/>
      <stop offset="1" stop-opacity="0"/>
    </linearGradient>
    <linearGradient id="Y" x1="579.887" y1="202.766" x2="540.776" y2="182.251" gradientUnits="userSpaceOnUse">
      <stop stop-color="#EC585D"/>
      <stop offset="1" stop-color="#FFF6B7"/>
    </linearGradient>
    <linearGradient id="Z" x1="581.899" y1="185.41" x2="552.489" y2="165.718" gradientUnits="userSpaceOnUse">
      <stop/>
      <stop offset="1" stop-opacity="0"/>
    </linearGradient>
    <linearGradient id="ab" x1="660.271" y1="92.982" x2="705.601" y2="65.963" gradientUnits="userSpaceOnUse">
      <stop stop-color="#fff"/>
      <stop offset="1" stop-color="#fff" stop-opacity="0"/>
    </linearGradient>
    <linearGradient id="ac" x1="657.949" y1="222.945" x2="729.099" y2="263.645" gradientUnits="userSpaceOnUse">
      <stop stop-color="#fff"/>
      <stop offset="1" stop-color="#fff" stop-opacity="0"/>
    </linearGradient>
    <linearGradient id="ad" x1="629.1" y1="152.2" x2="714.767" y2="169.191" gradientUnits="userSpaceOnUse">
      <stop stop-color="#fff"/>
      <stop offset="1" stop-color="#fff" stop-opacity="0"/>
    </linearGradient>
    <linearGradient id="ae" x1="450.378" y1="287.561" x2="485.134" y2="303.27" gradientUnits="userSpaceOnUse">
      <stop stop-color="#DAEBFF" stop-opacity=".86"/>
      <stop offset=".5" stop-color="#A35BFF" stop-opacity=".88"/>
      <stop offset=".987" stop-color="#3A07CD" stop-opacity=".8"/>
    </linearGradient>
    <linearGradient id="af" x1="446.523" y1="289.859" x2="467.689" y2="329.512" gradientUnits="userSpaceOnUse">
      <stop stop-color="#A5B3FF" stop-opacity=".84"/>
      <stop offset=".596" stop-color="#7622CA" stop-opacity=".998"/>
      <stop offset="1" stop-color="#2E2C9F"/>
    </linearGradient>
    <linearGradient id="ag" x1="491.889" y1="290.869" x2="468.82" y2="330.286" gradientUnits="userSpaceOnUse">
      <stop stop-color="#863BE7" stop-opacity=".76"/>
      <stop offset="1" stop-color="#0F1B5C" stop-opacity=".81"/>
    </linearGradient>
    <radialGradient id="a" cx="0" cy="0" r="1" gradientUnits="userSpaceOnUse" gradientTransform="matrix(515.97762 -329.13068 327.33502 513.16257 -49.756 435.211)">
      <stop stop-color="#484848" stop-opacity=".88"/>
      <stop offset=".47" stop-color="#242424"/>
      <stop offset="1" stop-color="#131313" stop-opacity=".34"/>
    </radialGradient>
    <radialGradient id="g" cx="0" cy="0" r="1" gradientUnits="userSpaceOnUse" gradientTransform="matrix(-23.46198 16.10569 -13.87439 -20.21154 353.558 154.919)">
      <stop stop-opacity=".8"/>
      <stop offset=".365" stop-opacity=".4"/>
      <stop offset=".844" stop-opacity="0"/>
    </radialGradient>
    <radialGradient id="h" cx="0" cy="0" r="1" gradientUnits="userSpaceOnUse" gradientTransform="rotate(141.935 170.375 145.467) scale(88.9812 76.6538)">
      <stop stop-color="#CA3066" stop-opacity=".8"/>
      <stop offset=".295" stop-color="#CA3066" stop-opacity=".4"/>
      <stop offset=".599" stop-color="#D63F75" stop-opacity=".095"/>
      <stop offset=".754" stop-color="#DC477D" stop-opacity="0"/>
    </radialGradient>
    <radialGradient id="n" cx="0" cy="0" r="1" gradientUnits="userSpaceOnUse" gradientTransform="rotate(96.139 138.71 246.443) scale(26.4219 26.4224)">
      <stop offset=".135" stop-color="#DC477D" stop-opacity=".4"/>
      <stop offset=".748" stop-color="#8A143F"/>
    </radialGradient>
    <radialGradient id="o" cx="0" cy="0" r="1" gradientUnits="userSpaceOnUse" gradientTransform="matrix(-2.5248 14.12705 -14.12735 -2.52486 398.333 134.882)">
      <stop stop-color="#F98DB4"/>
      <stop offset=".969" stop-color="#DC477D" stop-opacity="0"/>
    </radialGradient>
    <radialGradient id="p" cx="0" cy="0" r="1" gradientUnits="userSpaceOnUse" gradientTransform="matrix(-3.00584 25.84952 -25.85012 -3.00591 398.814 137.106)">
      <stop stop-color="#DC477D" stop-opacity="0"/>
      <stop offset=".391" stop-color="#CA3066" stop-opacity="0"/>
      <stop offset=".734" stop-color="#64112F"/>
      <stop offset=".844" stop-color="#500B24"/>
      <stop offset=".969" stop-color="#6C0E30" stop-opacity=".17"/>
    </radialGradient>
    <radialGradient id="q" cx="0" cy="0" r="1" gradientUnits="userSpaceOnUse" gradientTransform="matrix(-3.30642 26.5108 -26.5114 -3.3065 399.054 134.641)">
      <stop offset=".219" stop-color="#D1EBFF"/>
      <stop offset="1" stop-color="#CA3066"/>
    </radialGradient>
    <radialGradient id="r" cx="0" cy="0" r="1" gradientUnits="userSpaceOnUse" gradientTransform="rotate(83.861 121.378 286.164) scale(26.4219)">
      <stop offset=".135" stop-color="#DC477D" stop-opacity=".4"/>
      <stop offset=".748" stop-color="#8A143F"/>
    </radialGradient>
    <radialGradient id="s" cx="0" cy="0" r="1" gradientUnits="userSpaceOnUse" gradientTransform="rotate(79.867 116.017 302.27) scale(14.3509)">
      <stop stop-color="#F9BFD4"/>
      <stop offset=".969" stop-color="#DC477D" stop-opacity="0"/>
    </radialGradient>
    <radialGradient id="t" cx="0" cy="0" r="1" gradientUnits="userSpaceOnUse" gradientTransform="rotate(83.368 119.353 289.046) scale(26.0237)">
      <stop stop-color="#DC477D" stop-opacity="0"/>
      <stop offset=".391" stop-color="#CA3066" stop-opacity="0"/>
      <stop offset=".734" stop-color="#64112F"/>
      <stop offset=".844" stop-color="#500B24"/>
      <stop offset=".969" stop-color="#6C0E30" stop-opacity=".17"/>
    </radialGradient>
    <radialGradient id="u" cx="0" cy="0" r="1" gradientUnits="userSpaceOnUse" gradientTransform="rotate(82.891 119.982 289.532) scale(26.7162)">
      <stop offset=".219" stop-color="#FE689E"/>
      <stop offset="1" stop-color="#BE30CA"/>
    </radialGradient>
    <radialGradient id="B" cx="0" cy="0" r="1" gradientUnits="userSpaceOnUse" gradientTransform="matrix(-147.39443 -350.75744 3887.14338 -1633.44583 331.889 147.473)">
      <stop stop-color="#484848" stop-opacity=".88"/>
      <stop offset=".47" stop-color="#242424" stop-opacity=".76"/>
      <stop offset="1" stop-color="#131313" stop-opacity=".34"/>
    </radialGradient>
    <radialGradient id="U" cx="0" cy="0" r="1" gradientUnits="userSpaceOnUse" gradientTransform="rotate(142.55 244.596 187.097) scale(85.2774 73.463)">
      <stop stop-color="#F73F3F" stop-opacity=".8"/>
      <stop offset=".295" stop-color="#FF6635" stop-opacity=".33"/>
      <stop offset=".521" stop-color="#FFC06D" stop-opacity=".12"/>
      <stop offset=".745" stop-color="#FFE974" stop-opacity=".02"/>
      <stop offset=".953" stop-color="#FFDF38" stop-opacity="0"/>
    </radialGradient>
    <radialGradient id="aa" cx="0" cy="0" r="1" gradientUnits="userSpaceOnUse" gradientTransform="matrix(88.0856 8.43358 -5.16358 53.93168 475.909 326.845)">
      <stop offset=".375" stop-color="#EADDFF"/>
      <stop offset="1" stop-color="#E3D2FF" stop-opacity="0"/>
    </radialGradient>
    <filter id="b" x="285.945" y="-38.794" width="472.435" height="325.628" filterUnits="userSpaceOnUse" color-interpolation-filters="sRGB">
      <feFlood flood-opacity="0" result="BackgroundImageFix"/>
      <feBlend in="SourceGraphic" in2="BackgroundImageFix" result="shape"/>
      <feColorMatrix in="SourceAlpha" values="0 0 0 0 0 0 0 0 0 0 0 0 0 0 0 0 0 0 127 0" result="hardAlpha"/>
      <feOffset dy="71.403"/>
      <feGaussianBlur stdDeviation="26.446"/>
      <feComposite in2="hardAlpha" operator="arithmetic" k2="-1" k3="1"/>
      <feColorMatrix values="0 0 0 0 0 0 0 0 0 0 0 0 0 0 0 0 0 0 0.55 0"/>
      <feBlend in2="shape" result="effect1_innerShadow_4_8"/>
    </filter>
    <filter id="e" x="377.337" y="113.105" width="91.11" height="47.085" filterUnits="userSpaceOnUse" color-interpolation-filters="sRGB">
      <feFlood flood-opacity="0" result="BackgroundImageFix"/>
      <feBlend in="SourceGraphic" in2="BackgroundImageFix" result="shape"/>
      <feGaussianBlur stdDeviation=".983" result="effect1_foregroundBlur_4_8"/>
    </filter>
    <filter id="v" x="428.799" y="-187.678" width="482.666" height="331.535" filterUnits="userSpaceOnUse" color-interpolation-filters="sRGB">
      <feFlood flood-opacity="0" result="BackgroundImageFix"/>
      <feBlend in="SourceGraphic" in2="BackgroundImageFix" result="shape"/>
      <feColorMatrix in="SourceAlpha" values="0 0 0 0 0 0 0 0 0 0 0 0 0 0 0 0 0 0 127 0" result="hardAlpha"/>
      <feOffset dy="71.403"/>
      <feGaussianBlur stdDeviation="26.446"/>
      <feComposite in2="hardAlpha" operator="arithmetic" k2="-1" k3="1"/>
      <feColorMatrix values="0 0 0 0 0 0 0 0 0 0 0 0 0 0 0 0 0 0 0.55 0"/>
      <feBlend in2="shape" result="effect1_innerShadow_4_8"/>
    </filter>
    <filter id="G" x="231.977" y="91.828" width="670.032" height="389.072" filterUnits="userSpaceOnUse" color-interpolation-filters="sRGB">
      <feFlood flood-opacity="0" result="BackgroundImageFix"/>
      <feBlend in="SourceGraphic" in2="BackgroundImageFix" result="shape"/>
      <feColorMatrix in="SourceAlpha" values="0 0 0 0 0 0 0 0 0 0 0 0 0 0 0 0 0 0 127 0" result="hardAlpha"/>
      <feOffset dy="71.403"/>
      <feGaussianBlur stdDeviation="2"/>
      <feComposite in2="hardAlpha" operator="arithmetic" k2="-1" k3="1"/>
      <feColorMatrix values="0 0 0 0 0 0 0 0 0 0 0 0 0 0 0 0 0 0 0.15 0"/>
      <feBlend in2="shape" result="effect1_innerShadow_4_8"/>
    </filter>
    <filter id="P" x="429.053" y="13.78" width="603.117" height="401.101" filterUnits="userSpaceOnUse" color-interpolation-filters="sRGB">
      <feFlood flood-opacity="0" result="BackgroundImageFix"/>
      <feBlend in="SourceGraphic" in2="BackgroundImageFix" result="shape"/>
      <feColorMatrix in="SourceAlpha" values="0 0 0 0 0 0 0 0 0 0 0 0 0 0 0 0 0 0 127 0" result="hardAlpha"/>
      <feOffset dy="71.403"/>
      <feGaussianBlur stdDeviation="26.446"/>
      <feComposite in2="hardAlpha" operator="arithmetic" k2="-1" k3="1"/>
      <feColorMatrix values="0 0 0 0 0 0 0 0 0 0 0 0 0 0 0 0 0 0 0.55 0"/>
      <feBlend in2="shape" result="effect1_innerShadow_4_8"/>
    </filter>
    <filter id="S" x="522.79" y="137.005" width="104.158" height="51.796" filterUnits="userSpaceOnUse" color-interpolation-filters="sRGB">
      <feFlood flood-opacity="0" result="BackgroundImageFix"/>
      <feBlend in="SourceGraphic" in2="BackgroundImageFix" result="shape"/>
      <feGaussianBlur stdDeviation=".983" result="effect1_foregroundBlur_4_8"/>
    </filter>
  </defs>
</svg>
