<!-- <svg width="96" height="96" fill="none" xmlns="http://www.w3.org/2000/svg"><path fill="#161616" d="M0 0h96v96H0z"/><g clip-path="url(#a)" fill="#fff"><path d="M43.814 22 23 33.984v28.771l7.811 4.524V38.46L43.814 31v-9Z"/><path d="M52.14 22v22.943h-8.326v-8.58l-7.811 4.523v29.33l7.81 4.524V51.89h8.326v8.487l7.858-4.476V26.523L52.14 22Z"/><path d="M52.14 74.74 73 62.756V33.983l-7.858-4.476v28.771l-13.003 7.46v9Z"/></g><defs><clipPath id="a"><path fill="#fff" transform="translate(23 22)" d="M0 0h50v52.74H0z"/></clipPath></defs></svg> -->
<svg width="96" height="96" fill="none" xmlns="http://www.w3.org/2000/svg"><g clip-path="url(#a)"><path fill="#2E71E5" d="M0 0h96v96H0z"/><g clip-path="url(#b)"><path d="M76.333 5.165V3.288L94.153-7h3.25L76.333 5.165ZM108.513-7h-3.249L76.334 9.703v1.876L108.512-7Zm-5.555 0h-3.25L76.334 6.495v1.877L102.958-7Z" fill="url(#c)"/><path d="m76.345 12.918 15.501 8.95h-3.248l-12.265-7.081V12.91l.012.007Zm-.012 8.283 1.154.667h3.248l-4.402-2.542V21.2Zm0-5.083v1.876l6.71 3.874h3.248l-9.946-5.743-.012-.007Z" fill="url(#d)"/><path d="M109.667-3.126v1.876l-6.709 3.873 6.709 3.873v1.876l-9.958-5.75 9.958-5.748ZM94.154 2.623l15.513 8.957V9.704L97.402 2.623l12.265-7.081v-1.876L94.154 2.623Zm11.111 0 4.402 2.542V3.289l-1.154-.666 1.154-.667V.081l-4.402 2.542Z" fill="url(#e)"/><path d="M61.255 21.847 43 11.307v.272l17.82 10.289h.47l-.035-.021Zm8.37.02h-.471L43 6.768v-.271l26.588 15.35.036.022Zm-2.779 0h-.47L43 8.373V8.1l23.81 13.747.036.02Zm-2.777 0h-.47L43 9.976v-.272l21.033 12.144.036.02Zm8.333 0h-.47L43 5.165v-.272l29.366 16.955.036.02Zm2.778 0h-.47L43 3.56V3.29l32.144 18.558.036.02Z" fill="url(#f)"/><path d="M76.333 14.786v-.271l-3.931-2.27 3.931-2.27v-.272l-4.402 2.542 4.402 2.541Zm-7.18-2.541 7.18-4.145v.272l-6.709 3.873 6.71 3.873v.272l-7.18-4.145Zm-2.777 0 9.957-5.749v.272l-9.487 5.477 9.487 5.477v.272l-9.957-5.749Zm9.957-.938v.272l-1.153.666 1.153.666v.272l-1.624-.938 1.624-.938Zm-12.735.938 12.735-7.353v.272L64.07 12.245l12.264 7.081v.272l-12.735-7.353Zm-2.778 0 15.513-8.956v.271l-15.042 8.685 15.042 8.685v.272L60.82 12.245Z" fill="url(#g)"/><path d="M43.012 1.955 58.627-7h-.473L43 1.69v.272l.012-.007ZM43-6.334 44.153-7h.471L43-6.062v-.272Zm0 3.208L49.71-7h.47L43-2.855v-.271Zm0 1.875v-.272L52.487-7h.47L43-1.25Zm0 1.604V.08L55.265-7h.47L43.012.346 43 .353Zm0-5.083L46.931-7h.47L43-4.459v-.271Z" fill="url(#h)"/><path d="M91.847 50.735h-.471L76.333 42.05v-.271l15.478 8.935.036.021Zm-13.89 0-1.624-.938v.272l1.154.666h.47Zm11.076-.02-12.7-7.333v.272l12.265 7.081h.47l-.035-.02Zm-2.778 0-9.922-5.729v.272l9.487 5.477h.471l-.036-.02Zm-5.555 0-4.367-2.522v.272l3.932 2.27h.47l-.035-.02Zm2.777 0-7.144-4.125v.272l6.71 3.873h.47l-.036-.02Z" fill="url(#i)"/><path d="M80.265 21.868h.47l28.932 16.703v.272L80.3 21.888l-.035-.02Zm-2.742.02 32.144 18.559v-.272l-31.71-18.307h-.47l.036.02Zm8.333 0 23.811 13.748v-.272L86.291 21.868h-.47l.035.02Zm-2.778 0 26.589 15.351v-.271l-26.154-15.1h-.47l.035.02Zm5.556 0 21.033 12.144v-.272L89.069 21.868h-.471l.036.02Zm2.778 0 18.255 10.54v-.272l-17.82-10.288h-.471l.036.02Z" fill="url(#j)"/><path d="m76.345 28.956 33.322 19.238v.271L76.333 29.22v-.271l.012.006Zm-.012-1.611v.272l33.334 19.245v-.272L76.345 27.352l-.012-.007Zm0 3.207v.272l33.334 19.245v-.271L76.345 30.559l-.012-.007Zm0-4.81v.27l33.334 19.246v-.272L76.345 25.748l-.012-.007Zm0-1.605v.272l33.334 19.245v-.272L76.345 24.145l-.012-.007Zm0-1.604v.272l33.334 19.245v-.271L76.345 22.54l-.012-.006Z" fill="url(#k)"/></g><g clip-path="url(#l)" fill="#fff"><path d="M43.814 22 23 33.984v28.771l7.811 4.524V38.46L43.814 31v-9Z"/><path d="M52.14 22v22.943h-8.326v-8.58l-7.811 4.523v29.33l7.81 4.524V51.89h8.326v8.487l7.858-4.476V26.523L52.14 22Z"/><path d="M52.14 74.74 73 62.756V33.983l-7.858-4.476v28.771l-13.003 7.46v9Z"/></g><g clip-path="url(#m)"><path d="M14.667 90.57v1.878l-17.82 10.287h-3.25l21.07-12.164Zm-32.18 12.165h3.25l28.93-16.702v-1.876l-32.18 18.578Zm5.555 0h3.25L14.666 89.24v-1.877l-26.625 15.372Z" fill="url(#n)"/><path d="m14.655 82.817-15.501-8.95h3.248l12.265 7.081v1.876l-.012-.007Zm.012-8.283-1.154-.666h-3.248l4.402 2.541v-1.875Zm0 5.083v-1.875l-6.71-3.874H4.71l9.946 5.742.012.007Z" fill="url(#o)"/><path d="M29.745 73.888 48 84.428v-.272L30.18 73.868h-.47l.035.02Zm-8.37-.02h.471L48 88.968v.271L21.412 73.89l-.036-.021Zm2.779 0h.47L48 87.364v.272L24.19 73.888l-.036-.02Zm2.777 0h.47L48 85.76v.272L26.967 73.888l-.036-.02Zm-8.333 0h.47L48 90.57v.272L18.634 73.888l-.036-.02Zm-2.778 0h.47L48 92.175v.272L15.856 73.888l-.036-.02Z" fill="url(#p)"/><path d="M14.667 80.949v.272l3.931 2.27-3.931 2.269v.272l4.402-2.542-4.402-2.541Zm7.18 2.541-7.18 4.146v-.272l6.709-3.874-6.71-3.873v-.272l7.18 4.145Zm2.777 0-9.957 5.75v-.272l9.487-5.478-9.487-5.477v-.272l9.957 5.75Zm-9.957.938v-.272l1.153-.666-1.153-.666v-.272l1.624.938-1.624.938Zm12.735-.938-12.735 7.353v-.272l12.264-7.08-12.264-7.082v-.272l12.735 7.353Zm2.778 0-15.513 8.957v-.272l15.042-8.685-15.042-8.685v-.271L30.18 83.49Z" fill="url(#q)"/><path d="m47.988 93.78-15.615 8.955h.473L48 94.045v-.271l-.012.006ZM48 102.07l-1.153.666h-.471l1.624-.938v.272Zm0-3.207-6.71 3.873h-.47L48 98.59v.272Zm0-1.876v.272l-9.487 5.477h-.47L48 96.986Zm0-1.604v.272l-12.265 7.081h-.47l12.723-7.346.012-.007Zm0 5.083-3.931 2.27h-.47L48 100.194v.272-.001Z" fill="url(#r)"/><path d="M-.847 45h.471l15.043 8.685v.272L-.811 45.02-.847 45Zm13.89 0 1.624.938v-.272L13.513 45h-.47Zm-11.076.02 12.7 7.333v-.272L2.402 45h-.47l.035.02Zm2.778 0 9.922 5.73v-.273L5.18 45h-.471l.036.02Zm5.555 0 4.367 2.522v-.272L10.735 45h-.47l.035.02Zm-2.777 0 7.144 4.125v-.271L7.957 45h-.47l.036.02Z" fill="url(#s)"/><path d="M10.735 73.868h-.47l-28.932-16.704v-.272L10.7 73.847l.035.02Zm2.742-.021-32.144-18.558v.271l31.71 18.308h.47l-.036-.021Zm-8.333 0L-18.666 60.1v.271L4.708 73.868h.47l-.035-.021Zm2.778 0-26.589-15.351v.272l26.154 15.1h.47l-.035-.021Zm-5.556 0-21.033-12.143v.271L1.931 73.868h.471l-.036-.021Zm-2.778 0-18.255-10.54v.272l17.82 10.289h.471l-.036-.021Z" fill="url(#t)"/><path d="M14.655 66.78-18.667 47.54v-.271l33.334 19.245v.272l-.012-.007Zm.012 1.61v-.271l-33.334-19.245v.271l33.322 19.238.012.007Zm0-3.207v-.272l-33.334-19.245v.272l33.322 19.238.012.007Zm0 4.811v-.272l-33.334-19.245v.272l33.322 19.238.012.007Zm0 1.604v-.272l-33.334-19.245v.272L14.655 71.59l.012.007Zm0 1.604v-.272l-33.334-19.245v.272l33.322 19.238.012.007Z" fill="url(#u)"/></g></g><defs><linearGradient id="c" x1="85.424" y1="40.847" x2="269.415" y2="-141.531" gradientUnits="userSpaceOnUse"><stop stop-color="#6CC5FD"/><stop offset=".24" stop-color="#983FE9" stop-opacity=".97"/><stop offset=".57" stop-color="#7434CE" stop-opacity=".93"/><stop offset=".84" stop-color="#5D2DBE" stop-opacity=".8"/><stop offset="1" stop-color="#552AB8" stop-opacity=".72"/></linearGradient><linearGradient id="d" x1="85.424" y1="40.847" x2="269.415" y2="-141.531" gradientUnits="userSpaceOnUse"><stop stop-color="#6CC5FD"/><stop offset=".24" stop-color="#983FE9" stop-opacity=".97"/><stop offset=".57" stop-color="#7434CE" stop-opacity=".93"/><stop offset=".84" stop-color="#5D2DBE" stop-opacity=".8"/><stop offset="1" stop-color="#552AB8" stop-opacity=".72"/></linearGradient><linearGradient id="e" x1="85.424" y1="40.847" x2="269.415" y2="-141.531" gradientUnits="userSpaceOnUse"><stop stop-color="#6CC5FD"/><stop offset=".24" stop-color="#983FE9" stop-opacity=".97"/><stop offset=".57" stop-color="#7434CE" stop-opacity=".93"/><stop offset=".84" stop-color="#5D2DBE" stop-opacity=".8"/><stop offset="1" stop-color="#552AB8" stop-opacity=".72"/></linearGradient><linearGradient id="f" x1="85.424" y1="40.847" x2="269.415" y2="-141.531" gradientUnits="userSpaceOnUse"><stop stop-color="#6CC5FD"/><stop offset=".24" stop-color="#983FE9" stop-opacity=".97"/><stop offset=".57" stop-color="#7434CE" stop-opacity=".93"/><stop offset=".84" stop-color="#5D2DBE" stop-opacity=".8"/><stop offset="1" stop-color="#552AB8" stop-opacity=".72"/></linearGradient><linearGradient id="g" x1="85.424" y1="40.847" x2="269.415" y2="-141.531" gradientUnits="userSpaceOnUse"><stop stop-color="#6CC5FD"/><stop offset=".24" stop-color="#983FE9" stop-opacity=".97"/><stop offset=".57" stop-color="#7434CE" stop-opacity=".93"/><stop offset=".84" stop-color="#5D2DBE" stop-opacity=".8"/><stop offset="1" stop-color="#552AB8" stop-opacity=".72"/></linearGradient><linearGradient id="h" x1="85.424" y1="40.847" x2="269.415" y2="-141.531" gradientUnits="userSpaceOnUse"><stop stop-color="#6CC5FD"/><stop offset=".24" stop-color="#983FE9" stop-opacity=".97"/><stop offset=".57" stop-color="#7434CE" stop-opacity=".93"/><stop offset=".84" stop-color="#5D2DBE" stop-opacity=".8"/><stop offset="1" stop-color="#552AB8" stop-opacity=".72"/></linearGradient><linearGradient id="i" x1="85.424" y1="40.847" x2="269.415" y2="-141.531" gradientUnits="userSpaceOnUse"><stop stop-color="#6CC5FD"/><stop offset=".24" stop-color="#983FE9" stop-opacity=".97"/><stop offset=".57" stop-color="#7434CE" stop-opacity=".93"/><stop offset=".84" stop-color="#5D2DBE" stop-opacity=".8"/><stop offset="1" stop-color="#552AB8" stop-opacity=".72"/></linearGradient><linearGradient id="j" x1="85.424" y1="40.847" x2="269.415" y2="-141.531" gradientUnits="userSpaceOnUse"><stop stop-color="#6CC5FD"/><stop offset=".24" stop-color="#983FE9" stop-opacity=".97"/><stop offset=".57" stop-color="#7434CE" stop-opacity=".93"/><stop offset=".84" stop-color="#5D2DBE" stop-opacity=".8"/><stop offset="1" stop-color="#552AB8" stop-opacity=".72"/></linearGradient><linearGradient id="k" x1="85.424" y1="40.847" x2="269.415" y2="-141.531" gradientUnits="userSpaceOnUse"><stop stop-color="#6CC5FD"/><stop offset=".24" stop-color="#983FE9" stop-opacity=".97"/><stop offset=".57" stop-color="#7434CE" stop-opacity=".93"/><stop offset=".84" stop-color="#5D2DBE" stop-opacity=".8"/><stop offset="1" stop-color="#552AB8" stop-opacity=".72"/></linearGradient><linearGradient id="n" x1="5.576" y1="54.888" x2="-178.415" y2="237.267" gradientUnits="userSpaceOnUse"><stop stop-color="#6CC5FD"/><stop offset=".24" stop-color="#983FE9" stop-opacity=".97"/><stop offset=".57" stop-color="#7434CE" stop-opacity=".93"/><stop offset=".84" stop-color="#5D2DBE" stop-opacity=".8"/><stop offset="1" stop-color="#552AB8" stop-opacity=".72"/></linearGradient><linearGradient id="o" x1="5.576" y1="54.888" x2="-178.415" y2="237.266" gradientUnits="userSpaceOnUse"><stop stop-color="#6CC5FD"/><stop offset=".24" stop-color="#983FE9" stop-opacity=".97"/><stop offset=".57" stop-color="#7434CE" stop-opacity=".93"/><stop offset=".84" stop-color="#5D2DBE" stop-opacity=".8"/><stop offset="1" stop-color="#552AB8" stop-opacity=".72"/></linearGradient><linearGradient id="p" x1="5.576" y1="54.888" x2="-178.415" y2="237.267" gradientUnits="userSpaceOnUse"><stop stop-color="#6CC5FD"/><stop offset=".24" stop-color="#983FE9" stop-opacity=".97"/><stop offset=".57" stop-color="#7434CE" stop-opacity=".93"/><stop offset=".84" stop-color="#5D2DBE" stop-opacity=".8"/><stop offset="1" stop-color="#552AB8" stop-opacity=".72"/></linearGradient><linearGradient id="q" x1="5.576" y1="54.888" x2="-178.415" y2="237.267" gradientUnits="userSpaceOnUse"><stop stop-color="#6CC5FD"/><stop offset=".24" stop-color="#983FE9" stop-opacity=".97"/><stop offset=".57" stop-color="#7434CE" stop-opacity=".93"/><stop offset=".84" stop-color="#5D2DBE" stop-opacity=".8"/><stop offset="1" stop-color="#552AB8" stop-opacity=".72"/></linearGradient><linearGradient id="r" x1="5.576" y1="54.888" x2="-178.415" y2="237.267" gradientUnits="userSpaceOnUse"><stop stop-color="#6CC5FD"/><stop offset=".24" stop-color="#983FE9" stop-opacity=".97"/><stop offset=".57" stop-color="#7434CE" stop-opacity=".93"/><stop offset=".84" stop-color="#5D2DBE" stop-opacity=".8"/><stop offset="1" stop-color="#552AB8" stop-opacity=".72"/></linearGradient><linearGradient id="s" x1="5.576" y1="54.888" x2="-178.415" y2="237.267" gradientUnits="userSpaceOnUse"><stop stop-color="#6CC5FD"/><stop offset=".24" stop-color="#983FE9" stop-opacity=".97"/><stop offset=".57" stop-color="#7434CE" stop-opacity=".93"/><stop offset=".84" stop-color="#5D2DBE" stop-opacity=".8"/><stop offset="1" stop-color="#552AB8" stop-opacity=".72"/></linearGradient><linearGradient id="t" x1="5.576" y1="54.888" x2="-178.415" y2="237.266" gradientUnits="userSpaceOnUse"><stop stop-color="#6CC5FD"/><stop offset=".24" stop-color="#983FE9" stop-opacity=".97"/><stop offset=".57" stop-color="#7434CE" stop-opacity=".93"/><stop offset=".84" stop-color="#5D2DBE" stop-opacity=".8"/><stop offset="1" stop-color="#552AB8" stop-opacity=".72"/></linearGradient><linearGradient id="u" x1="5.576" y1="54.888" x2="-178.415" y2="237.266" gradientUnits="userSpaceOnUse"><stop stop-color="#6CC5FD"/><stop offset=".24" stop-color="#983FE9" stop-opacity=".97"/><stop offset=".57" stop-color="#7434CE" stop-opacity=".93"/><stop offset=".84" stop-color="#5D2DBE" stop-opacity=".8"/><stop offset="1" stop-color="#552AB8" stop-opacity=".72"/></linearGradient><clipPath id="a"><path fill="#fff" d="M0 0h96v96H0z"/></clipPath><clipPath id="b"><path fill="#fff" transform="translate(43 -7)" d="M0 0h100v57.735H0z"/></clipPath><clipPath id="l"><path fill="#fff" transform="translate(23 22)" d="M0 0h50v52.74H0z"/></clipPath><clipPath id="m"><path fill="#fff" transform="rotate(-180 24 51.367)" d="M0 0h100v57.735H0z"/></clipPath></defs></svg>