<!-- <svg width="96" height="96" fill="none" xmlns="http://www.w3.org/2000/svg"><path fill="#161616" d="M0 0h96v96H0z"/><path d="M48 19 23 33.39v28.887l25 14.391 25-14.39V33.39L48 19Zm19.223 39.916L48 70.05 28.777 58.916V36.752L48 25.618l19.223 11.134v22.164Z" fill="#fff"/><path d="m61.445 39.798-5.462-3.466L48 40.954l-7.983-4.727-5.883 3.466v16.492l5.463 3.151V43.895l-2.416-1.366v-1.05l2.416 1.365L48 47.676l10.504-6.092v1.05l-2.416 1.471v15.336l5.357-3.151V39.798Z" fill="#fff"/></svg> -->
<svg width="96" height="96" fill="none" xmlns="http://www.w3.org/2000/svg"><path fill="#006082" d="M0 0h96v96H0z"/><path d="M48.5 15 20 31.405v32.931l28.5 16.406L77 64.336v-32.93L48.5 15Zm21.914 45.504L48.5 73.198 26.586 60.504V35.237L48.5 22.544l21.914 12.693v25.267Z" fill="#fff"/><path d="M63.828 38.71 57.6 34.758l-9.1 5.27-9.102-5.39-6.706 3.952v18.8l6.227 3.593V43.38l-2.754-1.556v-1.198l2.754 1.557 9.58 5.508 11.975-6.945v1.197l-2.754 1.677v17.483l6.107-3.593v-18.8Z" fill="#fff"/></svg>