<!-- <svg width="96" height="96" fill="none" xmlns="http://www.w3.org/2000/svg"><path fill="#161616" d="M0 0h96v96H0z"/><g clip-path="url(#a)"><path d="M33.856 55.96v-2.813h5.555l1.809-10.422h-5.508v-2.877h6l1.472-9.015h3.403l-1.536 9.015h8.629l1.472-9.015h3.4l-1.472 9.015h5.128v2.877h-5.619L54.78 53.147h5.572v2.813h-6.001l-1.536 9.207h-3.337l1.536-9.207h-8.631l-1.536 9.207h-3.334l1.472-9.207h-5.129Zm19.336-13.235h-8.696l-1.688 10.422h8.696l1.688-10.422Z" fill="#fff"/><path fill-rule="evenodd" clip-rule="evenodd" d="M48.022 80a31.961 31.961 0 0 0 27.685-16 32.027 32.027 0 0 0 0-32 31.961 31.961 0 0 0-27.685-16 31.961 31.961 0 0 0-27.685 16 32.027 32.027 0 0 0 0 32 31.961 31.961 0 0 0 27.685 16v-3.07a28.898 28.898 0 0 1-25.03-14.465 28.952 28.952 0 0 1 0-28.93 28.898 28.898 0 0 1 25.03-14.465 28.898 28.898 0 0 1 25.03 14.465 28.952 28.952 0 0 1 0 28.93 28.898 28.898 0 0 1-25.03 14.465V80Z" fill="#455A64" fill-opacity=".01"/><path fill-rule="evenodd" clip-rule="evenodd" d="M48.022 80a31.956 31.956 0 0 0 24.994-12.048l-2.398-1.914A28.892 28.892 0 0 1 48.022 76.93V80ZM73.016 67.952A32.026 32.026 0 0 0 79.19 40.88l-2.99.682a28.953 28.953 0 0 1-5.581 24.476l2.398 1.914ZM79.19 40.88a31.996 31.996 0 0 0-17.298-21.71l-1.33 2.765a28.923 28.923 0 0 1 15.637 19.627l2.99-.682Z" fill="#fff"/><path fill-rule="evenodd" clip-rule="evenodd" d="M61.892 19.17a31.941 31.941 0 0 0-27.74 0l1.33 2.765a28.874 28.874 0 0 1 25.08 0l1.33-2.766Z" fill="#fff"/><path fill-rule="evenodd" clip-rule="evenodd" d="M34.152 19.17a31.996 31.996 0 0 0-17.297 21.71l2.99.682a28.924 28.924 0 0 1 15.638-19.627l-1.331-2.766Z" fill="#fff"/><path fill-rule="evenodd" clip-rule="evenodd" d="M16.855 40.88a32.026 32.026 0 0 0 6.173 27.072l2.398-1.914a28.953 28.953 0 0 1-5.58-24.476l-2.991-.682ZM23.028 67.952A31.956 31.956 0 0 0 48.022 80v-3.07a28.892 28.892 0 0 1-22.596-10.892l-2.398 1.914Z" fill="#fff"/></g><defs><clipPath id="a"><path fill="#fff" transform="translate(16 16)" d="M0 0h64v64H0z"/></clipPath></defs></svg> -->
<svg width="96" height="96" fill="none" xmlns="http://www.w3.org/2000/svg"><path fill="#FADC7F" d="M0 0h96v96H0z"/><g clip-path="url(#a)"><path d="M48.5 85C68.658 85 85 68.658 85 48.5S68.658 12 48.5 12 12 28.342 12 48.5 28.342 85 48.5 85Z" fill="#fff"/><path d="M33.887 56.74v-2.907h5.739l1.869-10.767h-5.69v-2.973h6.198l1.521-9.314h3.516l-1.587 9.314h8.915l1.521-9.314h3.514l-1.521 9.314h5.297v2.973h-5.805l-1.869 10.767h5.757v2.906h-6.2l-1.587 9.513h-3.448l1.587-9.513h-8.917l-1.587 9.513h-3.445l1.52-9.513h-5.298Zm19.977-13.674H44.88l-1.744 10.767h8.984l1.744-10.767Z" fill="#000"/><path fill-rule="evenodd" clip-rule="evenodd" d="M48.523 81.562c11.8 0 22.703-6.302 28.603-16.531a33.09 33.09 0 0 0 0-33.062 33.021 33.021 0 0 0-28.603-16.53 33.021 33.021 0 0 0-28.603 16.53 33.09 33.09 0 0 0 0 33.062 33.021 33.021 0 0 0 28.603 16.53V78.39a29.857 29.857 0 0 1-25.86-14.945 29.913 29.913 0 0 1 0-29.89 29.857 29.857 0 0 1 25.86-14.945 29.857 29.857 0 0 1 25.86 14.945 29.912 29.912 0 0 1 0 29.89 29.857 29.857 0 0 1-25.86 14.945v3.172Z" fill="#455A64" fill-opacity=".01"/><path fill-rule="evenodd" clip-rule="evenodd" d="M48.523 81.562a33.017 33.017 0 0 0 25.823-12.448l-2.478-1.977A29.85 29.85 0 0 1 48.523 78.39v3.172Z" fill="#CE001B"/><path fill-rule="evenodd" clip-rule="evenodd" d="M74.346 69.114a33.088 33.088 0 0 0 6.378-27.97l-3.09.705a29.913 29.913 0 0 1-5.766 25.288l2.478 1.977Z" fill="#780011"/><path fill-rule="evenodd" clip-rule="evenodd" d="M80.724 41.144a33.058 33.058 0 0 0-17.871-22.431l-1.375 2.857A29.882 29.882 0 0 1 77.634 41.85l3.09-.705Z" fill="#6D7096"/><path fill-rule="evenodd" clip-rule="evenodd" d="M62.853 18.713a33 33 0 0 0-28.66 0l1.374 2.857a29.832 29.832 0 0 1 25.911 0l1.375-2.857Z" fill="#60BBD5"/><path fill-rule="evenodd" clip-rule="evenodd" d="M34.193 18.713a33.058 33.058 0 0 0-17.871 22.43l3.09.706A29.883 29.883 0 0 1 35.567 21.57l-1.375-2.857Z" fill="#0F99BE"/><path fill-rule="evenodd" clip-rule="evenodd" d="M16.322 41.144a33.089 33.089 0 0 0 6.378 27.97l2.477-1.977a29.913 29.913 0 0 1-5.766-25.288l-3.09-.705Z" fill="#8C9D26"/><path fill-rule="evenodd" clip-rule="evenodd" d="M22.7 69.114a33.017 33.017 0 0 0 25.823 12.448V78.39a29.85 29.85 0 0 1-23.346-11.253L22.7 69.114Z" fill="#FCD813"/></g><defs><clipPath id="a"><path fill="#fff" transform="translate(12 12)" d="M0 0h73v73H0z"/></clipPath></defs></svg>